<svg width="105" height="40" viewBox="0 0 105 40" fill="none" xmlns="http://www.w3.org/2000/svg">
<rect width="40" height="40" rx="9.375" fill="#0043EF"/>
<path d="M16.2824 26.5155L8.58017 23.9089C8.43354 23.8591 8.28125 23.9684 8.28125 24.1234V28.8789C8.28125 28.9762 8.34307 29.0621 8.43504 29.0934L16.1372 31.7C16.2839 31.7498 16.4361 31.6405 16.4361 31.4855V26.73C16.4361 26.6327 16.3743 26.5468 16.2824 26.5155ZM24.294 17.3956L16.5899 20.0022C16.498 20.0335 16.4361 20.1194 16.4361 20.2167V24.9722C16.4361 25.1272 16.5884 25.2365 16.7351 25.1867L24.4391 22.5801C24.5311 22.5489 24.5929 22.4629 24.5929 22.3657V17.6101C24.5929 17.4552 24.441 17.3458 24.294 17.3956ZM31.5288 8.36655L18.6311 12.5205C18.5376 12.5507 18.4743 12.6378 18.4743 12.7361V17.6086C18.4743 17.7054 18.5704 17.774 18.6639 17.7439L31.5616 13.5899C31.655 13.5598 31.7188 13.4727 31.7188 13.3743V8.50188C31.7184 8.405 31.6223 8.3364 31.5288 8.36655Z" fill="white"/>
<path d="M87.8693 15.8532C88.0433 15.8534 88.1838 15.9946 88.1838 16.1687L88.0656 30.3435C88.0656 30.5122 87.9295 30.6491 87.7629 30.6491L87.7365 30.6433H85.5051C85.2538 30.6431 84.6339 30.4182 83.9845 30.0017C83.0967 30.4151 82.1117 30.6491 81.0744 30.6491H80.6506C78.7263 30.649 76.9792 29.8539 75.7131 28.5739C74.4459 27.2939 73.6604 25.5265 73.6603 23.5798C73.6603 21.6331 74.447 19.8657 75.7131 18.5856C76.9322 17.3536 78.5996 16.5729 80.4396 16.5163C81.9515 16.4266 83.3119 16.6464 84.1496 17.4948V16.1687C84.1496 15.9945 84.2908 15.8532 84.465 15.8532H87.8693ZM58.9211 9.36103H61.6047C61.8139 9.36113 61.9832 9.53051 61.9855 9.74189V13.0173C61.9855 13.2277 61.815 13.3971 61.6056 13.3972H58.2013C57.1927 13.3972 56.047 14.3928 56.047 15.4196V17.6921C57.1058 16.6323 58.2158 16.0891 58.9211 16.0505H60.7687C60.9792 16.0505 61.1496 16.2219 61.1496 16.4313V19.7077C61.1493 19.918 60.978 20.0876 60.7687 20.0876H58.2004C57.1917 20.0876 56.0462 21.0823 56.0461 22.1091V30.3327C56.046 30.5069 55.9048 30.6481 55.7306 30.6481H52.3263C52.1522 30.6481 52.0109 30.5068 52.0109 30.3327V16.5632C52.0109 16.449 51.9958 16.3355 52.0011 16.2224C52.0663 14.7921 51.921 9.07382 58.9211 9.36103ZM72.4289 16.0505C72.6382 16.0507 72.8087 16.222 72.8097 16.4313V19.7058C72.8097 19.9162 72.6392 20.0865 72.4299 20.0866H69.0256C68.0169 20.0866 66.8713 21.0813 66.8713 22.1081V30.3327C66.8712 30.5068 66.73 30.6481 66.5558 30.6481H63.1515C62.9775 30.6481 62.8362 30.5068 62.8361 30.3327V16.3669C62.8361 16.1928 62.9774 16.0515 63.1515 16.0515H66.5558C66.73 16.0515 66.8712 16.1927 66.8713 16.3669V17.6921C67.93 16.6323 69.307 16.0507 69.7453 16.0505H72.4289ZM93.6613 11.6784C93.8375 11.6784 93.9815 11.8214 93.9816 11.9987V22.4138L99.717 16.9812C99.7767 16.9247 99.8546 16.8943 99.9367 16.8942H103.801C104.085 16.8945 104.228 17.2363 104.029 17.4382L98.8381 22.7204L104.667 30.1257C104.833 30.3361 104.683 30.6432 104.416 30.6433H100.399C100.301 30.6433 100.21 30.5999 100.15 30.5241L96.1222 25.5261C96.0015 25.3799 95.7812 25.3672 95.6467 25.5007L93.9816 27.1433V30.3239C93.9816 30.5002 93.8387 30.6442 93.6613 30.6442H90.3146C90.1384 30.6442 89.9943 30.5013 89.9943 30.3239V11.9987C89.9944 11.8225 90.1374 11.6785 90.3146 11.6784H93.6613ZM80.6193 19.9353C79.6352 19.9353 78.7397 20.3434 78.09 21.0017C77.4393 21.6599 77.0353 22.5645 77.0353 23.5593C77.0353 24.554 77.4393 25.4598 78.09 26.1169C78.7397 26.7751 79.6352 27.1833 80.6193 27.1833H81.1037C82.0867 27.1833 82.9833 26.7751 83.633 26.1169C84.2837 25.4598 84.6877 24.554 84.6877 23.5593C84.6877 22.5645 84.2837 21.6588 83.633 21.0017C82.9833 20.3434 82.0867 19.9353 81.1037 19.9353H80.6193Z" fill="black"/>
</svg>
