<svg xmlns="http://www.w3.org/2000/svg" width="63" height="24" viewBox="0 0 63 24" fill="none"><title>Frak</title><rect width="24" height="24" rx="6" fill="#0043EF"/><path fill="white" d="M9.76941 15.9093L5.1481 14.3453C5.06012 14.3155 4.96875 14.3811 4.96875 14.474V17.3274C4.96875 17.3857 5.00584 17.4373 5.06103 17.4561L9.68234 19.02C9.77032 19.0499 9.86169 18.9843 9.86169 18.8913V16.038C9.86169 15.9796 9.8246 15.9281 9.76941 15.9093ZM14.5764 10.4374L9.95396 12.0013C9.89878 12.0201 9.86169 12.0717 9.86169 12.13V14.9833C9.86169 15.0763 9.95306 15.1419 10.041 15.112L14.6635 13.5481C14.7187 13.5293 14.7558 13.4777 14.7558 13.4194V10.566C14.7558 10.4731 14.6646 10.4075 14.5764 10.4374ZM18.9173 5.01993L11.1787 7.51231C11.1226 7.53041 11.0846 7.58265 11.0846 7.64168V10.5651C11.0846 10.6233 11.1423 10.6644 11.1983 10.6463L18.9369 8.15396C18.993 8.13586 19.0312 8.08362 19.0312 8.02459V5.10113C19.031 5.043 18.9734 5.00184 18.9173 5.01993Z"/><path fill="#191a15" d="M52.7211 9.5114C52.8254 9.51159 52.9095 9.59651 52.9096 9.70085L52.8383 18.2057C52.8383 18.3069 52.7575 18.3891 52.6577 18.3893L52.6411 18.3864H51.3022C51.1512 18.3861 50.7795 18.2504 50.3901 18.0007C49.8574 18.2487 49.2664 18.3893 48.644 18.3893H48.3901C47.2354 18.3893 46.1869 17.9123 45.4272 17.1442C44.667 16.3763 44.1958 15.316 44.1957 14.1481C44.1957 12.98 44.6675 11.9191 45.4272 11.151C46.1587 10.4118 47.1591 9.94381 48.2631 9.90983C49.1702 9.85599 49.9861 9.98778 50.4887 10.4967V9.70085C50.4888 9.5964 50.5737 9.51141 50.6782 9.5114H52.7211ZM35.352 5.61686H36.9623C37.0879 5.61703 37.1896 5.71855 37.1909 5.84538V7.81022C37.1909 7.93652 37.088 8.03874 36.9623 8.03874H34.9203C34.3151 8.03874 33.6274 8.63552 33.6274 9.25163V10.6149C34.2626 9.97905 34.9289 9.65371 35.352 9.63054H36.4604C36.5867 9.63054 36.6889 9.73339 36.6889 9.85905V11.8239C36.6889 11.9502 36.586 12.0524 36.4604 12.0524H34.9194C34.3143 12.0525 33.6276 12.6493 33.6274 13.2653V18.1999C33.6272 18.3042 33.5423 18.3883 33.4379 18.3883H31.395C31.2907 18.3882 31.2066 18.3042 31.2065 18.1999V9.93815C31.2065 9.86969 31.1975 9.80188 31.2006 9.73405C31.2397 8.87625 31.1516 5.44451 35.352 5.61686ZM39.933 9.63054C40.0375 9.63055 40.1224 9.71555 40.1225 9.81999V10.6149C40.7578 9.97909 41.5843 9.63054 41.8471 9.63054H43.4565C43.5821 9.63054 43.6844 9.73339 43.685 9.85905V11.8239C43.6848 11.95 43.5829 12.0513 43.4575 12.0514H41.4145C40.8093 12.0515 40.1225 12.6492 40.1225 13.2653V18.1999C40.1223 18.3042 40.0374 18.3883 39.933 18.3883H37.8901C37.7859 18.3882 37.7018 18.3041 37.7016 18.1999V9.81999C37.7017 9.71565 37.7858 9.63072 37.8901 9.63054H39.933ZM56.1967 7.00651C56.3021 7.00678 56.3879 7.09283 56.3881 7.1989V13.4479L59.8295 10.1891C59.8654 10.1552 59.912 10.1364 59.9614 10.1364H62.2797C62.4501 10.1364 62.5363 10.3414 62.4174 10.4626L59.3022 13.6325L62.7993 18.0749C62.8986 18.2012 62.8091 18.3864 62.6489 18.3864H60.2387C60.1804 18.3864 60.1258 18.3596 60.0893 18.3141L57.6723 15.3161C57.5998 15.2283 57.4679 15.2203 57.3871 15.3005L56.3881 16.2858V18.194C56.3881 18.2996 56.3029 18.3861 56.1967 18.3864H54.1879C54.0823 18.3862 53.9955 18.3003 53.9955 18.194V7.1989C53.9958 7.09341 54.0818 7.00669 54.1879 7.00651H56.1967ZM48.3705 11.9606C47.7802 11.9607 47.2427 12.2054 46.853 12.6003C46.4626 12.9952 46.2202 13.5386 46.2202 14.1354C46.2202 14.7323 46.4626 15.2763 46.853 15.6706C47.2427 16.0654 47.7802 16.3102 48.3705 16.3102H48.6616C49.2513 16.3102 49.7894 16.0654 50.1791 15.6706C50.5696 15.2763 50.8119 14.7323 50.8119 14.1354C50.8119 13.5386 50.5695 12.9945 50.1791 12.6003C49.7894 12.2055 49.2512 11.9606 48.6616 11.9606H48.3705Z"/></svg>
