<svg fill="none" height="21" viewBox="0 0 20 21" width="20" xmlns="http://www.w3.org/2000/svg"><g fill="#434343"><path d="m19.6152 6.0956c0-.14502-.0707-.27753-.1902-.35254l-7.7856-5.175687c-.1293-.085011-.2902-.090012-.4243-.012502-.1317.07251-.217.217529-.217.37505l.0073 1.745229c-.0244.0075-.0463.0125-.0707.0225-.1487.05001-.295.10252-.4657.15752-.95099.35005-1.87513.81261-2.75538 1.38269-1.67514 1.08764-3.17961 2.59034-4.33295 4.33807-1.12165 1.69027-1.94337 3.64297-2.37496 5.63827-.424273 1.9277-.502301 3.9755-.23652 5.9208.02926.2125.202383.365.41208.365.20726 0 .38282-.1525.41208-.365.24384-1.7653.79735-3.468 1.59713-4.9232.76076-1.3827 1.77268-2.5953 2.93334-3.503 1.09482-.8551 2.34082-1.4476 3.59413-1.71018.42675-.09002.86805-.14002 1.31675-.15753l.0048 1.51521c0 .1525.0829.2975.2195.37.1317.0776.295.0676.4243-.0175l7.7442-5.25565c.117-.08001.1877-.21253.1877-.35755z"/><path d="m15.6129 14.1679c.3272 0 .6266.1534.8561.4065l.4839-.7122c-.3674-.3464-.8335-.554-1.34-.554-.857 0-1.5981.5941-1.9417 1.4506h-.571v.8595h.3748c-.0053.0708-.0084.1424-.0084.2149 0 .0733.0032.1458.0085.2176h-.3723v.8595h.5695c.3441.855 1.0844 1.448 1.9406 1.448.5091 0 .9771-.2095 1.3452-.5594l-.4861-.7102c-.2301.2551-.5303.41-.8591.41-.3989 0-.7568-.2288-.9969-.5884h1.209v-.8595h-1.5091c-.0075-.0713-.0116-.1439-.0116-.2176 0-.0727.0041-.1443.0112-.2149h1.5084v-.8595h-1.2097c.2402-.3611.5987-.5909.9987-.5909z"/><path d="m15.0677 11.1667c-1.6343 0-3.1158.8826-3.9298 2.3196l-.6951-.2259.4766 2.2183 1.6339-1.5324-.6587-.2142c.6923-1.1034 1.8742-1.7753 3.1731-1.7753 2.0829 0 3.7777 1.739 3.7777 3.8765 0 2.1376-1.6948 3.8766-3.7777 3.8766-1.9765 0-3.6318-1.5829-3.7684-3.604l-.7681.0546c.1645 2.4333 2.1572 4.3395 4.5365 4.3395 2.5077 0 4.5475-2.0934 4.5475-4.6667 0-2.5732-2.0398-4.6666-4.5475-4.6666z"/></g></svg>