<svg fill="none" height="31" viewBox="0 0 221 31" width="221" xmlns="http://www.w3.org/2000/svg" xmlns:xlink="http://www.w3.org/1999/xlink"><linearGradient id="a"><stop offset="0" stop-color="#fff"/><stop offset="1" stop-color="#0ddb84"/></linearGradient><radialGradient id="b" cx="0" cy="0" gradientTransform="matrix(132.32812191 8.08695098 -.53213388 8.70739504 82.3764 15.2754)" gradientUnits="userSpaceOnUse" r="1" xlink:href="#a"/><radialGradient id="c" cx="0" cy="0" gradientTransform="matrix(9.86297327 1.35253769 -.14450348 1.05374806 15.9088 8.58504)" gradientUnits="userSpaceOnUse" r="1" xlink:href="#a"/><mask id="d" fill="#fff"><path d="m58.7399 26.088.0306-1.0444v-2.3916c-1.4351 2.3714-3.5521 3.88-6.3511 4.5258-.8855.2019-1.9185.3028-3.0992.3028-1.1704 0-2.3867-.2422-3.6488-.7266-1.2518-.4844-2.3511-1.1857-3.2976-2.104-2.0763-1.998-3.1145-4.6268-3.1145-7.8862 0-3.1182 1.0992-5.757 3.2977-7.91652 2.29-2.23014 5.1653-3.34522 8.6258-3.34522 1.7506 0 3.3333.32292 4.748.96875.8651.38347 1.4758.7417 1.8321 1.07471.3562.32292.5343.58529.5343.78711 0 .19173-.0611.35824-.1832.49951-.1221.14128-.2952.21192-.5191.21192-.2137 0-.4529-.11605-.7175-.34815-.7837-.6862-1.4758-1.13525-2.0763-1.34717-.5904-.21191-1.0636-.36328-1.4199-.4541-.3562-.09082-.6768-.15641-.9618-.19677-.4376-.06055-.9567-.09082-1.5572-.09082s-1.1552.05045-1.6641.15136v19.58689c.112.0101.2239.0152.3359.0152h.3053c3.0229 0 5.4707-1.1353 7.3434-3.4058.6412-.777 1.1705-1.6953 1.5878-2.7549v-1.4531s-.0255-.4541-.0764-1.3623c0-.5348.2138-.8023.6412-.8023.224 0 .397.0757.5191.2271.1222.1413.1832.3179.1832.5298l-.0916 1.2563v5.6309l.0916 2.3462c0 .2422-.0712.4339-.2137.5752-.1323.1412-.2901.2119-.4733.2119-.4478 0-.6717-.2321-.6717-.6963 0-.1211.0203-.3128.061-.5752z" fill="#fff"/><path d="m63.8849 19.0192c0-1.211.2188-2.3109.6565-3.2999.4478-.999 1.0585-1.8668 1.832-2.6035 1.6692-1.5742 3.7658-2.3613 6.29-2.3613 2.575 0 4.6717.8174 6.29 2.4522 1.547 1.5439 2.3205 3.4965 2.3205 5.8579 0 2.3714-.7939 4.3543-2.3816 5.9487-1.6387 1.6449-3.7353 2.4673-6.29 2.4673-2.4936 0-4.5597-.7821-6.1984-2.3462-1.6793-1.6146-2.519-3.653-2.519-6.1152zm8.2899 7.3261c.0815.0101.1629.0152.2443.0152h.2137c2.056 0 3.7812-.6307 5.1755-1.8921 1.486-1.3623 2.229-3.1485 2.229-5.3584 0-2.1595-.6972-3.9103-2.0916-5.2525-1.374-1.332-3.15-1.998-5.3281-1.998h-.229c-.0713 0-.1425.005-.2138.0151z" fill="#fff"/><path d="m83.793 19.0192c0-1.211.2188-2.3109.6565-3.2999.4478-.999 1.0585-1.8668 1.832-2.6035 1.6692-1.5742 3.7658-2.3613 6.29-2.3613 2.575 0 4.6716.8174 6.2899 2.4522 1.5466 1.5439 2.3206 3.4965 2.3206 5.8579 0 2.3714-.794 4.3543-2.3816 5.9487-1.6387 1.6449-3.7353 2.4673-6.29 2.4673-2.4936 0-4.5597-.7821-6.1984-2.3462-1.6793-1.6146-2.519-3.653-2.519-6.1152zm8.2899 7.3261c.0814.0101.1629.0152.2443.0152h.2137c2.056 0 3.7811-.6307 5.1755-1.8921 1.486-1.3623 2.229-3.1485 2.229-5.3584 0-2.1595-.6972-3.9103-2.0916-5.2525-1.374-1.332-3.1501-1.998-5.3281-1.998h-.229c-.0713 0-.1425.005-.2138.0151z" fill="#fff"/><path d="m116.663 26.3605c-1.273.7467-2.621 1.1201-4.046 1.1201-1.415 0-2.662-.2069-3.74-.6206-1.069-.4239-1.985-1.0091-2.749-1.7559-1.587-1.5641-2.381-3.5975-2.381-6.1001 0-2.3209.784-4.2534 2.351-5.7973 1.669-1.6348 3.847-2.4522 6.534-2.4522 1.425 0 2.769.3078 4.031.9233v-5.90327h6.29v21.41847h-6.29zm-4.336-14.501c-.316 0-.616.0202-.901.0605v14.3496c.367.0606.763.0909 1.191.0909 1.415 0 2.763-.444 4.046-1.3321v-12.0034c-1.374-.777-2.82-1.1655-4.336-1.1655z" fill="#fff"/><path d="m150.372 5.60802c.417 0 .626.21696.626.65088 0 .22201-.071.47933-.214.77197-.132.28256-.239.51465-.32.69629l-8.29 20.29834-10.046-22.25097h8.336l4.855 11.32227 3.404-8.4463c.367-.9082.606-1.56413.718-1.96777.112-.40365.234-.68115.366-.83252.133-.16146.321-.24219.565-.24219z" fill="#fff"/><path d="m157.349 8.37804c-1.048 0-1.868-.2321-2.458-.69629s-.885-1.0747-.885-1.83154c0-.63574.325-1.18066.977-1.63477.692-.48437 1.425-.72656 2.198-.72656.774 0 1.369.07568 1.786.22705.428.15137.789.34815 1.084.59033.591.49447.886 1.06967.886 1.72559s-.336 1.21094-1.008 1.66504-1.532.68115-2.58.68115zm-3.206 2.64896h6.565v16.166h-6.565z" fill="#fff"/><path d="m176.097 27.4806c-1.415 0-2.784-.3179-4.107-.9536v.666h-6.275v-21.41847h6.275v6.02437c1.293-.6962 2.646-1.0444 4.061-1.0444s2.657.2069 3.725.6206c1.069.4137 1.985.9839 2.748 1.7105 1.578 1.5338 2.367 3.4965 2.367 5.8881 0 2.4118-.779 4.4149-2.336 6.0093-1.608 1.6651-3.761 2.4976-6.458 2.4976zm-.046-15.6211c-1.506 0-2.86.4137-4.061 1.2412v12.1396c1.333.7468 2.83 1.1202 4.489 1.1202h.396c.123 0 .24-.0101.352-.0303v-14.3799c-.387-.0605-.779-.0908-1.176-.0908z" fill="#fff"/><path d="m202.997 23.5148c.397 0 .596.1816.596.5449 0 .2724-.179.5954-.535.9687-1.608 1.6348-3.811 2.4522-6.61 2.4522-2.514 0-4.631-.7518-6.351-2.2554-1.782-1.5641-2.672-3.542-2.672-5.9336 0-2.442.804-4.4502 2.412-6.0244 1.7-1.6751 3.959-2.5127 6.779-2.5127 2.259 0 4.157.6812 5.694 2.0435 1.659 1.4632 2.489 3.3855 2.489 5.7671 0 .3431-.01.7063-.031 1.0898h-10.076v6.4936c.692.1413 1.471.212 2.336.212 1.832 0 3.394-.6005 4.687-1.8013.264-.2624.453-.4692.565-.6206.234-.2826.473-.4238.717-.4238zm-4.076-11.3677c-.662-.1917-1.41-.2876-2.244-.2876-.835 0-1.496.0555-1.985.1665v6.5239h4.229z" fill="#fff"/><path d="m207.486 25.1647c0-.1514.051-.2876.152-.4087.112-.1312.255-.1968.428-.1968s.315.0504.427.1514c0 0 .128.116.382.3481 1.058.9183 2.539 1.3774 4.443 1.3774 1.282 0 2.106-.2623 2.473-.7871.102-.1412.153-.2825.153-.4238 0-.1514-.031-.2926-.092-.4238-.051-.1413-.168-.3078-.351-.4995-.183-.2019-.443-.439-.779-.7115l-1.343-1.0747c-2.219-1.7155-3.741-3.108-4.565-4.1777-.753-.9788-1.13-1.9779-1.13-2.9971 0-1.2815.596-2.3563 1.786-3.2241 1.232-.9082 2.825-1.3623 4.779-1.3623 1.374 0 2.458.1564 3.252.4692.794.3129 1.353.6005 1.679.8628.326.2523.489.4844.489.6963 0 .4339-.173.6509-.519.6509-.163 0-.316-.0555-.458-.1665-.133-.1211-.402-.3179-.81-.5903-.407-.2826-.946-.5046-1.618-.666-.672-.1615-1.298-.2422-1.878-.2422s-.992.0908-1.236.2724c-.234.1817-.351.3633-.351.5449 0 .1716.035.3381.106.4996.072.1513.204.333.397.5449.448.5247 1.166 1.1453 2.153 1.8618s1.822 1.3724 2.504 1.9678 1.216 1.1453 1.603 1.6499c.702.9082 1.053 1.8265 1.053 2.7549 0 .9283-.173 1.7255-.519 2.3916-.346.6559-.84 1.221-1.481 1.6953-1.353 1.0192-3.16 1.5288-5.419 1.5288-1.812 0-3.324-.3431-4.535-1.0293-.783-.4339-1.175-.8628-1.175-1.2866z" fill="#fff"/><path clip-rule="evenodd" d="m16.2493 0c-8.62865 0-15.634066 6.94566-15.634066 15.5007 0 8.5536 7.005416 15.4993 15.634066 15.4993 8.6272 0 15.6326-6.9457 15.6326-15.4993 0-8.55504-7.0054-15.5007-15.6326-15.5007zm0 1.55052c7.7643 0 14.0688 6.25065 14.0688 13.95018 0 7.6996-6.3045 13.9503-14.0688 13.9503-7.76579 0-14.07021-6.2507-14.07021-13.9503 0-7.69953 6.30442-13.95018 14.07021-13.95018z" fill="#fff" fill-rule="evenodd"/><path clip-rule="evenodd" d="m7.57599 23.6018c5.78161-1.8318 11.56331-1.8392 17.34501-.0015.4113.131.8509-.0928.9831-.5007.1322-.4078-.095-.8437-.5064-.9747-6.0995-1.9393-12.1975-1.9319-18.29695 0-.41139.1295-.63861.5669-.50792.9733.13218.4078.57178.6331.98316.5036z" fill="#fff" fill-rule="evenodd"/><path clip-rule="evenodd" d="m4.36828 16.2753h23.76222c.4307 0 .7812-.3476.7812-.7746 0-.4285-.3505-.776-.7812-.776h-23.76222c-.43069 0-.78118.3475-.78118.776 0 .427.35049.7746.78118.7746z" fill="#fff" fill-rule="evenodd"/><path clip-rule="evenodd" d="m7.10075 8.87608c6.09945 1.93192 12.19745 1.93922 18.29695 0 .4114-.13105.6386-.5669.5064-.97478-.1322-.40787-.5718-.63169-.9831-.50064-5.7817 1.83765-11.5634 1.83029-17.34501-.00147-.41138-.12958-.85098.09571-.98316.50358-.13069.40641.09653.84373.50792.97331z" fill="#fff" fill-rule="evenodd"/></mask><g fill="url(#b)"><path d="m58.7399 26.088.0306-1.0444v-2.3916c-1.4351 2.3714-3.5521 3.88-6.3511 4.5258-.8855.2019-1.9185.3028-3.0992.3028-1.1704 0-2.3867-.2422-3.6488-.7266-1.2518-.4844-2.3511-1.1857-3.2976-2.104-2.0763-1.998-3.1145-4.6268-3.1145-7.8862 0-3.1182 1.0992-5.757 3.2977-7.91652 2.29-2.23014 5.1653-3.34522 8.6258-3.34522 1.7506 0 3.3333.32292 4.748.96875.8651.38347 1.4758.7417 1.8321 1.07471.3562.32292.5343.58529.5343.78711 0 .19173-.0611.35824-.1832.49951-.1221.14128-.2952.21192-.5191.21192-.2137 0-.4529-.11605-.7175-.34815-.7837-.6862-1.4758-1.13525-2.0763-1.34717-.5904-.21191-1.0636-.36328-1.4199-.4541-.3562-.09082-.6768-.15641-.9618-.19677-.4376-.06055-.9567-.09082-1.5572-.09082s-1.1552.05045-1.6641.15136v19.58689c.112.0101.2239.0152.3359.0152h.3053c3.0229 0 5.4707-1.1353 7.3434-3.4058.6412-.777 1.1705-1.6953 1.5878-2.7549v-1.4531s-.0255-.4541-.0764-1.3623c0-.5348.2138-.8023.6412-.8023.224 0 .397.0757.5191.2271.1222.1413.1832.3179.1832.5298l-.0916 1.2563v5.6309l.0916 2.3462c0 .2422-.0712.4339-.2137.5752-.1323.1412-.2901.2119-.4733.2119-.4478 0-.6717-.2321-.6717-.6963 0-.1211.0203-.3128.061-.5752z"/><path d="m63.8849 19.0192c0-1.211.2188-2.3109.6565-3.2999.4478-.999 1.0585-1.8668 1.832-2.6035 1.6692-1.5742 3.7658-2.3613 6.29-2.3613 2.575 0 4.6717.8174 6.29 2.4522 1.547 1.5439 2.3205 3.4965 2.3205 5.8579 0 2.3714-.7939 4.3543-2.3816 5.9487-1.6387 1.6449-3.7353 2.4673-6.29 2.4673-2.4936 0-4.5597-.7821-6.1984-2.3462-1.6793-1.6146-2.519-3.653-2.519-6.1152zm8.2899 7.3261c.0815.0101.1629.0152.2443.0152h.2137c2.056 0 3.7812-.6307 5.1755-1.8921 1.486-1.3623 2.229-3.1485 2.229-5.3584 0-2.1595-.6972-3.9103-2.0916-5.2525-1.374-1.332-3.15-1.998-5.3281-1.998h-.229c-.0713 0-.1425.005-.2138.0151z"/><path d="m83.793 19.0192c0-1.211.2188-2.3109.6565-3.2999.4478-.999 1.0585-1.8668 1.832-2.6035 1.6692-1.5742 3.7658-2.3613 6.29-2.3613 2.575 0 4.6716.8174 6.2899 2.4522 1.5466 1.5439 2.3206 3.4965 2.3206 5.8579 0 2.3714-.794 4.3543-2.3816 5.9487-1.6387 1.6449-3.7353 2.4673-6.29 2.4673-2.4936 0-4.5597-.7821-6.1984-2.3462-1.6793-1.6146-2.519-3.653-2.519-6.1152zm8.2899 7.3261c.0814.0101.1629.0152.2443.0152h.2137c2.056 0 3.7811-.6307 5.1755-1.8921 1.486-1.3623 2.229-3.1485 2.229-5.3584 0-2.1595-.6972-3.9103-2.0916-5.2525-1.374-1.332-3.1501-1.998-5.3281-1.998h-.229c-.0713 0-.1425.005-.2138.0151z"/><path d="m116.663 26.3605c-1.273.7467-2.621 1.1201-4.046 1.1201-1.415 0-2.662-.2069-3.74-.6206-1.069-.4239-1.985-1.0091-2.749-1.7559-1.587-1.5641-2.381-3.5975-2.381-6.1001 0-2.3209.784-4.2534 2.351-5.7973 1.669-1.6348 3.847-2.4522 6.534-2.4522 1.425 0 2.769.3078 4.031.9233v-5.90327h6.29v21.41847h-6.29zm-4.336-14.501c-.316 0-.616.0202-.901.0605v14.3496c.367.0606.763.0909 1.191.0909 1.415 0 2.763-.444 4.046-1.3321v-12.0034c-1.374-.777-2.82-1.1655-4.336-1.1655z"/><path d="m150.372 5.60802c.417 0 .626.21696.626.65088 0 .22201-.071.47933-.214.77197-.132.28256-.239.51465-.32.69629l-8.29 20.29834-10.046-22.25097h8.336l4.855 11.32227 3.404-8.4463c.367-.9082.606-1.56413.718-1.96777.112-.40365.234-.68115.366-.83252.133-.16146.321-.24219.565-.24219z"/><path d="m157.349 8.37804c-1.048 0-1.868-.2321-2.458-.69629s-.885-1.0747-.885-1.83154c0-.63574.325-1.18066.977-1.63477.692-.48437 1.425-.72656 2.198-.72656.774 0 1.369.07568 1.786.22705.428.15137.789.34815 1.084.59033.591.49447.886 1.06967.886 1.72559s-.336 1.21094-1.008 1.66504-1.532.68115-2.58.68115zm-3.206 2.64896h6.565v16.166h-6.565z"/><path d="m176.097 27.4806c-1.415 0-2.784-.3179-4.107-.9536v.666h-6.275v-21.41847h6.275v6.02437c1.293-.6962 2.646-1.0444 4.061-1.0444s2.657.2069 3.725.6206c1.069.4137 1.985.9839 2.748 1.7105 1.578 1.5338 2.367 3.4965 2.367 5.8881 0 2.4118-.779 4.4149-2.336 6.0093-1.608 1.6651-3.761 2.4976-6.458 2.4976zm-.046-15.6211c-1.506 0-2.86.4137-4.061 1.2412v12.1396c1.333.7468 2.83 1.1202 4.489 1.1202h.396c.123 0 .24-.0101.352-.0303v-14.3799c-.387-.0605-.779-.0908-1.176-.0908z"/><path d="m202.997 23.5148c.397 0 .596.1816.596.5449 0 .2724-.179.5954-.535.9687-1.608 1.6348-3.811 2.4522-6.61 2.4522-2.514 0-4.631-.7518-6.351-2.2554-1.782-1.5641-2.672-3.542-2.672-5.9336 0-2.442.804-4.4502 2.412-6.0244 1.7-1.6751 3.959-2.5127 6.779-2.5127 2.259 0 4.157.6812 5.694 2.0435 1.659 1.4632 2.489 3.3855 2.489 5.7671 0 .3431-.01.7063-.031 1.0898h-10.076v6.4936c.692.1413 1.471.212 2.336.212 1.832 0 3.394-.6005 4.687-1.8013.264-.2624.453-.4692.565-.6206.234-.2826.473-.4238.717-.4238zm-4.076-11.3677c-.662-.1917-1.41-.2876-2.244-.2876-.835 0-1.496.0555-1.985.1665v6.5239h4.229z"/><path d="m207.486 25.1647c0-.1514.051-.2876.152-.4087.112-.1312.255-.1968.428-.1968s.315.0504.427.1514c0 0 .128.116.382.3481 1.058.9183 2.539 1.3774 4.443 1.3774 1.282 0 2.106-.2623 2.473-.7871.102-.1412.153-.2825.153-.4238 0-.1514-.031-.2926-.092-.4238-.051-.1413-.168-.3078-.351-.4995-.183-.2019-.443-.439-.779-.7115l-1.343-1.0747c-2.219-1.7155-3.741-3.108-4.565-4.1777-.753-.9788-1.13-1.9779-1.13-2.9971 0-1.2815.596-2.3563 1.786-3.2241 1.232-.9082 2.825-1.3623 4.779-1.3623 1.374 0 2.458.1564 3.252.4692.794.3129 1.353.6005 1.679.8628.326.2523.489.4844.489.6963 0 .4339-.173.6509-.519.6509-.163 0-.316-.0555-.458-.1665-.133-.1211-.402-.3179-.81-.5903-.407-.2826-.946-.5046-1.618-.666-.672-.1615-1.298-.2422-1.878-.2422s-.992.0908-1.236.2724c-.234.1817-.351.3633-.351.5449 0 .1716.035.3381.106.4996.072.1513.204.333.397.5449.448.5247 1.166 1.1453 2.153 1.8618s1.822 1.3724 2.504 1.9678 1.216 1.1453 1.603 1.6499c.702.9082 1.053 1.8265 1.053 2.7549 0 .9283-.173 1.7255-.519 2.3916-.346.6559-.84 1.221-1.481 1.6953-1.353 1.0192-3.16 1.5288-5.419 1.5288-1.812 0-3.324-.3431-4.535-1.0293-.783-.4339-1.175-.8628-1.175-1.2866z"/></g><path clip-rule="evenodd" d="m16.2493 0c-8.62865 0-15.634066 6.94566-15.634066 15.5007 0 8.5536 7.005416 15.4993 15.634066 15.4993 8.6272 0 15.6326-6.9457 15.6326-15.4993 0-8.55504-7.0054-15.5007-15.6326-15.5007zm0 1.55052c7.7643 0 14.0688 6.25065 14.0688 13.95018 0 7.6996-6.3045 13.9503-14.0688 13.9503-7.76579 0-14.07021-6.2507-14.07021-13.9503 0-7.69953 6.30442-13.95018 14.07021-13.95018z" fill="url(#c)" fill-rule="evenodd"/><path clip-rule="evenodd" d="m7.57599 23.6018c5.78161-1.8318 11.56331-1.8392 17.34501-.0015.4113.131.8509-.0928.9831-.5007.1322-.4078-.095-.8437-.5064-.9747-6.0995-1.9393-12.1975-1.9319-18.29695 0-.41139.1295-.63861.5669-.50792.9733.13218.4078.57178.6331.98316.5036z" fill="url(#c)" fill-rule="evenodd"/><path clip-rule="evenodd" d="m4.36828 16.2753h23.76222c.4307 0 .7812-.3476.7812-.7746 0-.4285-.3505-.776-.7812-.776h-23.76222c-.43069 0-.78118.3475-.78118.776 0 .427.35049.7746.78118.7746z" fill="url(#c)" fill-rule="evenodd"/><path clip-rule="evenodd" d="m7.10075 8.87608c6.09945 1.93192 12.19745 1.93922 18.29695 0 .4114-.13105.6386-.5669.5064-.97478-.1322-.40787-.5718-.63169-.9831-.50064-5.7817 1.83765-11.5634 1.83029-17.34501-.00147-.41138-.12958-.85098.09571-.98316.50358-.13069.40641.09653.84373.50792.97331z" fill="url(#c)" fill-rule="evenodd"/><g stroke="#077748" stroke-width=".8"><path d="m58.7399 26.088.0306-1.0444v-2.3916c-1.4351 2.3714-3.5521 3.88-6.3511 4.5258-.8855.2019-1.9185.3028-3.0992.3028-1.1704 0-2.3867-.2422-3.6488-.7266-1.2518-.4844-2.3511-1.1857-3.2976-2.104-2.0763-1.998-3.1145-4.6268-3.1145-7.8862 0-3.1182 1.0992-5.757 3.2977-7.91652 2.29-2.23014 5.1653-3.34522 8.6258-3.34522 1.7506 0 3.3333.32292 4.748.96875.8651.38347 1.4758.7417 1.8321 1.07471.3562.32292.5343.58529.5343.78711 0 .19173-.0611.35824-.1832.49951-.1221.14128-.2952.21192-.5191.21192-.2137 0-.4529-.11605-.7175-.34815-.7837-.6862-1.4758-1.13525-2.0763-1.34717-.5904-.21191-1.0636-.36328-1.4199-.4541-.3562-.09082-.6768-.15641-.9618-.19677-.4376-.06055-.9567-.09082-1.5572-.09082s-1.1552.05045-1.6641.15136v19.58689c.112.0101.2239.0152.3359.0152h.3053c3.0229 0 5.4707-1.1353 7.3434-3.4058.6412-.777 1.1705-1.6953 1.5878-2.7549v-1.4531s-.0255-.4541-.0764-1.3623c0-.5348.2138-.8023.6412-.8023.224 0 .397.0757.5191.2271.1222.1413.1832.3179.1832.5298l-.0916 1.2563v5.6309l.0916 2.3462c0 .2422-.0712.4339-.2137.5752-.1323.1412-.2901.2119-.4733.2119-.4478 0-.6717-.2321-.6717-.6963 0-.1211.0203-.3128.061-.5752z" mask="url(#d)"/><path d="m63.8849 19.0192c0-1.211.2188-2.3109.6565-3.2999.4478-.999 1.0585-1.8668 1.832-2.6035 1.6692-1.5742 3.7658-2.3613 6.29-2.3613 2.575 0 4.6717.8174 6.29 2.4522 1.547 1.5439 2.3205 3.4965 2.3205 5.8579 0 2.3714-.7939 4.3543-2.3816 5.9487-1.6387 1.6449-3.7353 2.4673-6.29 2.4673-2.4936 0-4.5597-.7821-6.1984-2.3462-1.6793-1.6146-2.519-3.653-2.519-6.1152zm8.2899 7.3261c.0815.0101.1629.0152.2443.0152h.2137c2.056 0 3.7812-.6307 5.1755-1.8921 1.486-1.3623 2.229-3.1485 2.229-5.3584 0-2.1595-.6972-3.9103-2.0916-5.2525-1.374-1.332-3.15-1.998-5.3281-1.998h-.229c-.0713 0-.1425.005-.2138.0151z" mask="url(#d)"/><path d="m83.793 19.0192c0-1.211.2188-2.3109.6565-3.2999.4478-.999 1.0585-1.8668 1.832-2.6035 1.6692-1.5742 3.7658-2.3613 6.29-2.3613 2.575 0 4.6716.8174 6.2899 2.4522 1.5466 1.5439 2.3206 3.4965 2.3206 5.8579 0 2.3714-.794 4.3543-2.3816 5.9487-1.6387 1.6449-3.7353 2.4673-6.29 2.4673-2.4936 0-4.5597-.7821-6.1984-2.3462-1.6793-1.6146-2.519-3.653-2.519-6.1152zm8.2899 7.3261c.0814.0101.1629.0152.2443.0152h.2137c2.056 0 3.7811-.6307 5.1755-1.8921 1.486-1.3623 2.229-3.1485 2.229-5.3584 0-2.1595-.6972-3.9103-2.0916-5.2525-1.374-1.332-3.1501-1.998-5.3281-1.998h-.229c-.0713 0-.1425.005-.2138.0151z" mask="url(#d)"/><path d="m116.663 26.3605c-1.273.7467-2.621 1.1201-4.046 1.1201-1.415 0-2.662-.2069-3.74-.6206-1.069-.4239-1.985-1.0091-2.749-1.7559-1.587-1.5641-2.381-3.5975-2.381-6.1001 0-2.3209.784-4.2534 2.351-5.7973 1.669-1.6348 3.847-2.4522 6.534-2.4522 1.425 0 2.769.3078 4.031.9233v-5.90327h6.29v21.41847h-6.29zm-4.336-14.501c-.316 0-.616.0202-.901.0605v14.3496c.367.0606.763.0909 1.191.0909 1.415 0 2.763-.444 4.046-1.3321v-12.0034c-1.374-.777-2.82-1.1655-4.336-1.1655z" mask="url(#d)"/><path d="m150.372 5.60802c.417 0 .626.21696.626.65088 0 .22201-.071.47933-.214.77197-.132.28256-.239.51465-.32.69629l-8.29 20.29834-10.046-22.25097h8.336l4.855 11.32227 3.404-8.4463c.367-.9082.606-1.56413.718-1.96777.112-.40365.234-.68115.366-.83252.133-.16146.321-.24219.565-.24219z" mask="url(#d)"/><path d="m157.349 8.37804c-1.048 0-1.868-.2321-2.458-.69629s-.885-1.0747-.885-1.83154c0-.63574.325-1.18066.977-1.63477.692-.48437 1.425-.72656 2.198-.72656.774 0 1.369.07568 1.786.22705.428.15137.789.34815 1.084.59033.591.49447.886 1.06967.886 1.72559s-.336 1.21094-1.008 1.66504-1.532.68115-2.58.68115zm-3.206 2.64896h6.565v16.166h-6.565z" mask="url(#d)"/><path d="m176.097 27.4806c-1.415 0-2.784-.3179-4.107-.9536v.666h-6.275v-21.41847h6.275v6.02437c1.293-.6962 2.646-1.0444 4.061-1.0444s2.657.2069 3.725.6206c1.069.4137 1.985.9839 2.748 1.7105 1.578 1.5338 2.367 3.4965 2.367 5.8881 0 2.4118-.779 4.4149-2.336 6.0093-1.608 1.6651-3.761 2.4976-6.458 2.4976zm-.046-15.6211c-1.506 0-2.86.4137-4.061 1.2412v12.1396c1.333.7468 2.83 1.1202 4.489 1.1202h.396c.123 0 .24-.0101.352-.0303v-14.3799c-.387-.0605-.779-.0908-1.176-.0908z" mask="url(#d)"/><path d="m202.997 23.5148c.397 0 .596.1816.596.5449 0 .2724-.179.5954-.535.9687-1.608 1.6348-3.811 2.4522-6.61 2.4522-2.514 0-4.631-.7518-6.351-2.2554-1.782-1.5641-2.672-3.542-2.672-5.9336 0-2.442.804-4.4502 2.412-6.0244 1.7-1.6751 3.959-2.5127 6.779-2.5127 2.259 0 4.157.6812 5.694 2.0435 1.659 1.4632 2.489 3.3855 2.489 5.7671 0 .3431-.01.7063-.031 1.0898h-10.076v6.4936c.692.1413 1.471.212 2.336.212 1.832 0 3.394-.6005 4.687-1.8013.264-.2624.453-.4692.565-.6206.234-.2826.473-.4238.717-.4238zm-4.076-11.3677c-.662-.1917-1.41-.2876-2.244-.2876-.835 0-1.496.0555-1.985.1665v6.5239h4.229z" mask="url(#d)"/><path d="m207.486 25.1647c0-.1514.051-.2876.152-.4087.112-.1312.255-.1968.428-.1968s.315.0504.427.1514c0 0 .128.116.382.3481 1.058.9183 2.539 1.3774 4.443 1.3774 1.282 0 2.106-.2623 2.473-.7871.102-.1412.153-.2825.153-.4238 0-.1514-.031-.2926-.092-.4238-.051-.1413-.168-.3078-.351-.4995-.183-.2019-.443-.439-.779-.7115l-1.343-1.0747c-2.219-1.7155-3.741-3.108-4.565-4.1777-.753-.9788-1.13-1.9779-1.13-2.9971 0-1.2815.596-2.3563 1.786-3.2241 1.232-.9082 2.825-1.3623 4.779-1.3623 1.374 0 2.458.1564 3.252.4692.794.3129 1.353.6005 1.679.8628.326.2523.489.4844.489.6963 0 .4339-.173.6509-.519.6509-.163 0-.316-.0555-.458-.1665-.133-.1211-.402-.3179-.81-.5903-.407-.2826-.946-.5046-1.618-.666-.672-.1615-1.298-.2422-1.878-.2422s-.992.0908-1.236.2724c-.234.1817-.351.3633-.351.5449 0 .1716.035.3381.106.4996.072.1513.204.333.397.5449.448.5247 1.166 1.1453 2.153 1.8618s1.822 1.3724 2.504 1.9678 1.216 1.1453 1.603 1.6499c.702.9082 1.053 1.8265 1.053 2.7549 0 .9283-.173 1.7255-.519 2.3916-.346.6559-.84 1.221-1.481 1.6953-1.353 1.0192-3.16 1.5288-5.419 1.5288-1.812 0-3.324-.3431-4.535-1.0293-.783-.4339-1.175-.8628-1.175-1.2866z" mask="url(#d)"/><g clip-rule="evenodd" fill-rule="evenodd"><path d="m16.2493 0c-8.62865 0-15.634066 6.94566-15.634066 15.5007 0 8.5536 7.005416 15.4993 15.634066 15.4993 8.6272 0 15.6326-6.9457 15.6326-15.4993 0-8.55504-7.0054-15.5007-15.6326-15.5007zm0 1.55052c7.7643 0 14.0688 6.25065 14.0688 13.95018 0 7.6996-6.3045 13.9503-14.0688 13.9503-7.76579 0-14.07021-6.2507-14.07021-13.9503 0-7.69953 6.30442-13.95018 14.07021-13.95018z" mask="url(#d)"/><path d="m7.57599 23.6018c5.78161-1.8318 11.56331-1.8392 17.34501-.0015.4113.131.8509-.0928.9831-.5007.1322-.4078-.095-.8437-.5064-.9747-6.0995-1.9393-12.1975-1.9319-18.29695 0-.41139.1295-.63861.5669-.50792.9733.13218.4078.57178.6331.98316.5036z" mask="url(#d)"/><path d="m4.36828 16.2753h23.76222c.4307 0 .7812-.3476.7812-.7746 0-.4285-.3505-.776-.7812-.776h-23.76222c-.43069 0-.78118.3475-.78118.776 0 .427.35049.7746.78118.7746z" mask="url(#d)"/><path d="m7.10075 8.87608c6.09945 1.93192 12.19745 1.93922 18.29695 0 .4114-.13105.6386-.5669.5064-.97478-.1322-.40787-.5718-.63169-.9831-.50064-5.7817 1.83765-11.5634 1.83029-17.34501-.00147-.41138-.12958-.85098.09571-.98316.50358-.13069.40641.09653.84373.50792.97331z" mask="url(#d)"/></g></g></svg>