<svg fill="none" height="14" viewBox="0 0 14 14" width="14" xmlns="http://www.w3.org/2000/svg" xmlns:xlink="http://www.w3.org/1999/xlink"><clipPath id="a"><path d="m.230957.5h13v13h-13z"/></clipPath><g clip-path="url(#a)"><path clip-rule="evenodd" d="m13.0328 12.3339-3.1474-3.21604c.8093-.94512 1.2526-2.13428 1.2526-3.37225 0-2.89238-2.39521-5.24561-5.33924-5.24561-2.94404 0-5.339287 2.35323-5.339287 5.24561 0 2.89239 2.395247 5.24559 5.339287 5.24559 1.10523 0 2.15846-.3275 3.05895-.9492l3.17129 3.2404c.1326.1353.3108.2098.5019.2098.1808 0 .3524-.0677.4826-.1908.2767-.2616.2856-.6954.0193-.9675zm-7.23404-10.46548c2.17611 0 3.94643 1.73926 3.94643 3.87719s-1.77032 3.8772-3.94643 3.8772-3.94643-1.73927-3.94643-3.8772 1.77032-3.87719 3.94643-3.87719z" fill="#d8d8d8" fill-rule="evenodd"/></g></svg>