<svg fill="none" height="111" viewBox="0 0 112 111" width="112" xmlns="http://www.w3.org/2000/svg" xmlns:xlink="http://www.w3.org/1999/xlink"><linearGradient id="a" gradientUnits="userSpaceOnUse" x1="15.8098" x2="82.777" y1="72.7509" y2="25.9143"><stop offset=".0211" stop-color="#b15eb3"/><stop offset=".0362" stop-color="#b156b3"/><stop offset=".0877" stop-color="#b13fb3"/><stop offset=".1436" stop-color="#b12fb3"/><stop offset=".2067" stop-color="#b126b3"/><stop offset=".2921" stop-color="#b123b3"/><stop offset=".4242" stop-color="#6e5cca"/><stop offset=".5536" stop-color="#348fdf"/><stop offset=".6487" stop-color="#10aeeb"/><stop offset=".6992" stop-color="#02baf0"/><stop offset=".8968" stop-color="#02e6d5"/></linearGradient><g fill="#333"><path d="m89.9647 90.041-1.7294 1.706v3.3045c0 .1832-.1487.333-.333.333h-3.4765c-.1832 0-.333-.1487-.333-.333v-19.0365c0-.1831.1487-.333.333-.333h3.4765c.1831 0 .333.1487.333.333v10.8192l5.9574-5.6433c.0621-.0588.1432-.091.2286-.091h4.0138c.2952 0 .444.3552.2375.565l-5.3924 5.4878 6.0551 7.6923c.172.2187.0166.5384-.2609.5384h-4.1736c-.101 0-.1953-.0455-.2586-.1243l-4.1836-5.1915c-.1254-.1521-.3541-.1654-.4939-.0266z"/><path d="m65.8453 80.2241h-2.7872c-.4551 0-1.8859.6039-2.9859 1.705v-1.3764c0-.1809-.1465-.3275-.3274-.3275h-3.5365c-.1809 0-.3274.1466-.3274.3275v14.5077c0 .1809.1465.3274.3274.3274h3.5365c.1809 0 .3274-.1465.3274-.3274v-8.5437c0-1.0667 1.1899-2.1001 2.2378-2.1001h3.5364c.2176 0 .3952-.1765.3952-.3952v-3.4021c-.0011-.2176-.1787-.3952-.3963-.3952z"/><path d="m54.6008 73.2744h-2.7872c-7.2727-.2986-7.1207 5.6433-7.1884 7.1284-.0055.1177.01.2354.01.3541v7.3538 6.9497c0 .1809.1465.3274.3275.3274h3.5364c.181 0 .3275-.1465.3275-.3274v-6.9497-1.5929c0-1.0667 1.1899-2.1001 2.2377-2.1001h2.6685c.2175 0 .3951-.1765.3951-.3952v-3.4032c0-.2176-.1765-.3952-.3951-.3952h-1.9192c-.7326.04-1.8859.6039-2.9859 1.705v-1.3764-.9846c0-1.0667 1.1899-2.1001 2.2377-2.1001h3.5365c.2176 0 .3952-.1765.3952-.3952v-3.4021c-.0023-.2198-.1787-.3963-.3963-.3963z"/><path d="m82.2121 80.3463c0-.181-.1465-.3275-.3274-.3275h-3.5365c-.1809 0-.3274.1465-.3274.3275v1.3775c-.8703-.8814-2.2833-1.1089-3.854-1.0157-1.9114.0588-3.643.8691-4.9095 2.149-1.3153 1.3297-2.1323 3.1657-2.1323 5.1881s.8159 3.8584 2.1323 5.1881c1.3154 1.3298 3.1302 2.1557 5.1293 2.1557h.4396c1.0778 0 2.1012-.2431 3.0236-.6727.6749.4329 1.3187.6671 1.5796.6671h2.3176l.0278.0056c.1731 0 .3141-.1421.3141-.3175zm-4.7275 10.3352c-.6748.6837-1.6061 1.1077-2.6273 1.1077h-.504c-1.0223 0-1.9525-.424-2.6273-1.1077-.676-.6827-1.0956-1.624-1.0956-2.6574s.4196-1.9736 1.0956-2.6573c.6748-.6838 1.605-1.1078 2.6273-1.1078h.504c1.0212 0 1.9525.424 2.6273 1.1078.676.6826 1.0956 1.6239 1.0956 2.6573s-.4196 1.9747-1.0956 2.6574z"/></g><path d="m36.1556 69.0764-22.6806-7.6757c-.4318-.1465-.8803.1754-.8803.6316v14.0038c0 .2864.1821.5394.4529.6316l22.6806 7.6756c.4318.1465.8803-.1754.8803-.6316v-14.0037c0-.2864-.1821-.5395-.4529-.6316zm23.5919-26.8554-22.6862 7.6757c-.2708.0921-.4528.3452-.4528.6316v14.0037c0 .4562.4484.7781.8802.6316l22.6862-7.6756c.2708-.0922.4529-.3452.4529-.6316v-14.0038c0-.4562-.4474-.7781-.8803-.6316zm21.3043-26.5878-37.9798 12.2322c-.2753.0888-.4618.3452-.4618.6349v14.3479c0 .2853.2831.4873.5584.3985l37.9797-12.2322c.2753-.0888.4629-.3452.4629-.6349v-14.3479c-.0011-.2853-.2842-.4873-.5594-.3985z" fill="url(#a)"/></svg>