<svg fill="none" height="136" viewBox="0 0 141 136" width="141" xmlns="http://www.w3.org/2000/svg" xmlns:xlink="http://www.w3.org/1999/xlink"><linearGradient id="a" gradientUnits="userSpaceOnUse" x1="2.22359" x2="48.5388" y1="40.1674" y2="7.77468"><stop offset=".0211" stop-color="#b15eb3"/><stop offset=".0362" stop-color="#b156b3"/><stop offset=".0877" stop-color="#b13fb3"/><stop offset=".1436" stop-color="#b12fb3"/><stop offset=".2067" stop-color="#b126b3"/><stop offset=".2921" stop-color="#b123b3"/><stop offset=".4242" stop-color="#6e5cca"/><stop offset=".5536" stop-color="#348fdf"/><stop offset=".6487" stop-color="#10aeeb"/><stop offset=".6992" stop-color="#02baf0"/><stop offset=".8968" stop-color="#02e6d5"/></linearGradient><g transform="translate(40 40)"><g fill="#333"><path d="m53.5094 52.1253-1.1961 1.18v2.2854c0 .1267-.1029.2303-.2303.2303h-2.4044c-.1267 0-.2303-.1029-.2303-.2303v-13.1659c0-.1266.1029-.2303.2303-.2303h2.4044c.1267 0 .2303.1029.2303.2303v7.4827l4.1202-3.9029c.043-.0407.099-.063.1581-.063h2.776c.2042 0 .3071.2457.1643.3908l-3.7294 3.7954 4.1877 5.3201c.119.1512.0115.3723-.1804.3723h-2.8865c-.0699 0-.1351-.0315-.1789-.086l-2.8934-3.5904c-.0868-.1052-.2449-.1144-.3416-.0185z"/><path d="m36.8282 45.3359h-1.9276c-.3148 0-1.3043.4176-2.0651 1.1792v-.952c0-.1251-.1013-.2264-.2265-.2264h-2.4458c-.1252 0-.2265.1013-.2265.2264v10.0337c0 .1252.1013.2265.2265.2265h2.4458c.1252 0 .2265-.1013.2265-.2265v-5.9089c0-.7377.823-1.4524 1.5477-1.4524h2.4458c.1505 0 .2733-.1221.2733-.2733v-2.353c-.0008-.1505-.1236-.2733-.2741-.2733z"/><path d="m29.0516 40.5294h-1.9277c-5.0299-.2065-4.9247 3.9029-4.9715 4.9301-.0039.0814.0069.1627.0069.2449v5.0859 4.8065c0 .1252.1013.2265.2265.2265h2.4458c.1251 0 .2265-.1013.2265-.2265v-4.8065-1.1016c0-.7378.8229-1.4525 1.5476-1.4525h1.8456c.1504 0 .2733-.122.2733-.2733v-2.3537c0-.1505-.1221-.2733-.2733-.2733h-1.3274c-.5066.0276-1.3043.4176-2.0651 1.1792v-.952-.6809c0-.7377.823-1.4525 1.5477-1.4525h2.4459c.1504 0 .2733-.122.2733-.2733v-2.3529c-.0016-.152-.1236-.2741-.2741-.2741z"/><path d="m48.1479 45.4203c0-.1251-.1014-.2264-.2265-.2264h-2.4459c-.1251 0-.2264.1013-.2264.2264v.9527c-.6019-.6095-1.5792-.7669-2.6654-.7024-1.322.0407-2.5196.6011-3.3955 1.4863-.9097.9196-1.4748 2.1894-1.4748 3.5881 0 1.3988.5643 2.6685 1.4748 3.5882.9097.9197 2.1649 1.4908 3.5475 1.4908h.304c.7454 0 1.4532-.1681 2.0911-.4652.4668.2994.9121.4614 1.0925.4614h1.6029l.0192.0038c.1197 0 .2172-.0982.2172-.2195zm-3.2696 7.148c-.4668.4729-1.1109.7661-1.8171.7661h-.3486c-.707 0-1.3503-.2932-1.8171-.7661-.4675-.4721-.7577-1.1231-.7577-1.8379 0-.7147.2902-1.3649.7577-1.8378.4668-.4729 1.1101-.7662 1.8171-.7662h.3486c.7062 0 1.3503.2933 1.8171.7662.4675.4721.7577 1.1231.7577 1.8378 0 .7148-.2902 1.3658-.7577 1.8379z"/></g><path d="m16.2949 37.626-15.686124-5.3085c-.29863-.1014-.608776.1212-.608776.4368v9.6851c0 .1981.125901.3731.313217.4368l15.686183 5.3086c.2986.1013.6088-.1213.6088-.4368v-9.6852c0-.198-.1259-.3731-.3133-.4368zm16.3165-18.5734-15.69 5.3085c-.1873.0638-.3132.2388-.3132.4369v9.6851c0 .3155.3101.5382.6087.4368l15.69-5.3085c.1873-.0638.3132-.2388.3132-.4369v-9.6851c0-.3155-.3093-.5382-.6087-.4368zm14.7342-18.388442-26.2672 8.459922c-.1904.06141-.3194.23875-.3194.43912v9.9231c0 .1973.1958.337.3862.2756l26.2672-8.4599c.1904-.0614.3201-.2387.3201-.4391v-9.923142c-.0008-.197296-.1965-.337015-.3869-.2756z" fill="url(#a)"/></g></svg>