<svg preserveAspectRatio="none" width="100%" height="100%" overflow="visible" style="display: block;" viewBox="0 0 95.4529 18.0254" fill="none" xmlns="http://www.w3.org/2000/svg">
<g id="Levels">
<path id="Cellular Connection" fill-rule="evenodd" clip-rule="evenodd" d="M31.6389 5.35275C31.6389 4.83408 31.2476 4.41361 30.7649 4.41361H29.891C29.4083 4.41361 29.017 4.83408 29.017 5.35275V13.492C29.017 14.0107 29.4083 14.4312 29.891 14.4312H30.7649C31.2476 14.4312 31.6389 14.0107 31.6389 13.492V5.35275ZM25.5478 6.41712H26.4218C26.9045 6.41712 27.2957 6.84768 27.2957 7.37881V13.4695C27.2957 14.0006 26.9045 14.4312 26.4218 14.4312H25.5478C25.0651 14.4312 24.6739 14.0006 24.6739 13.4695V7.37881C24.6739 6.84768 25.0651 6.41712 25.5478 6.41712ZM21.9986 8.58759H21.1247C20.642 8.58759 20.2507 9.02363 20.2507 9.56152V13.4572C20.2507 13.9951 20.642 14.4312 21.1247 14.4312H21.9986C22.4813 14.4312 22.8726 13.9951 22.8726 13.4572V9.56152C22.8726 9.02363 22.4813 8.58759 21.9986 8.58759ZM17.6555 10.5911H16.7815C16.2989 10.5911 15.9076 11.0209 15.9076 11.5511V13.4712C15.9076 14.0014 16.2989 14.4312 16.7815 14.4312H17.6555C18.1382 14.4312 18.5295 14.0014 18.5295 13.4712V11.5511C18.5295 11.0209 18.1382 10.5911 17.6555 10.5911Z" fill="var(--fill-0, white)"/>
<path id="Wifi" fill-rule="evenodd" clip-rule="evenodd" d="M44.397 6.39258C46.4348 6.39267 48.3947 7.14817 49.8716 8.50293C49.9828 8.60752 50.1605 8.6062 50.2701 8.49997L51.3331 7.46476C51.3886 7.41088 51.4195 7.3379 51.4191 7.26196C51.4186 7.18602 51.3868 7.11339 51.3307 7.06014C47.4544 3.47577 41.3391 3.47577 37.4628 7.06014C37.4066 7.11336 37.3748 7.18596 37.3743 7.2619C37.3737 7.33784 37.4046 7.41084 37.46 7.46476L38.5234 8.49997C38.6329 8.60636 38.8108 8.60768 38.9219 8.50293C40.399 7.14808 42.3591 6.39258 44.397 6.39258ZM44.3943 9.85042C45.5064 9.85035 46.5788 10.2696 47.4032 11.0268C47.5147 11.1343 47.6903 11.1319 47.799 11.0216L48.8537 9.9406C48.9093 9.8839 48.9401 9.80698 48.9393 9.72706C48.9385 9.64713 48.9061 9.57086 48.8494 9.51532C46.3391 7.14674 42.4516 7.14674 39.9413 9.51532C39.8846 9.57086 39.8522 9.64717 39.8515 9.72712C39.8507 9.80707 39.8817 9.88398 39.9373 9.9406L40.9917 11.0216C41.1004 11.1319 41.2761 11.1343 41.3876 11.0268C42.2114 10.2701 43.2829 9.85089 44.3943 9.85042ZM46.4626 12.1393C46.4642 12.2256 46.4339 12.3088 46.3787 12.3693L44.5953 14.3805C44.543 14.4397 44.4717 14.4729 44.3974 14.4729C44.323 14.4729 44.2517 14.4397 44.1994 14.3805L42.4157 12.3693C42.3606 12.3088 42.3303 12.2255 42.3319 12.1392C42.3336 12.0529 42.367 11.9712 42.4244 11.9133C43.5633 10.8368 45.2314 10.8368 46.3704 11.9133C46.4277 11.9712 46.4611 12.053 46.4626 12.1393Z" fill="var(--fill-0, white)"/>
<g id="Battery">
<rect id="Border" opacity="0.35" x="57.5641" y="4.50636" width="19.6641" height="9.83206" rx="3.11349" stroke="var(--stroke-0, white)" stroke-width="0.819338"/>
<path id="Cap" opacity="0.4" d="M78.4572 8.01405V11.3532C79.1166 11.0704 79.5454 10.4125 79.5454 9.68365C79.5454 8.95476 79.1166 8.29686 78.4572 8.01405" fill="var(--fill-0, white)"/>
<rect id="Capacity" x="58.7931" y="5.73537" width="17.2061" height="7.37405" rx="2.04835" fill="var(--fill-0, white)"/>
</g>
</g>
</svg>
