<svg fill="none" height="25" viewBox="0 0 26 25" width="26" xmlns="http://www.w3.org/2000/svg"><g fill="#434343"><path d="m15.5514 19c-1.0331 0-1.9448.5022-2.4998 1.2692l-6.31812-3.7119c.00374-.0606.00942-.1208.00942-.1823 0-.2423-.03251-.4767-.0879-.7023l6.9159-3.3859c.5343.4441 1.2249.7132 1.9805.7132 1.6921 0 3.0638-1.3431 3.0638-3.00002 0-1.65685-1.3717-2.99998-3.0638-2.99998s-3.0638 1.34313-3.0638 2.99998c0 .42132.0895.82182.2495 1.18562l-6.6963 3.2785c-.56197-.6652-1.41125-1.0891-2.36173-1.0891-1.69211 0-3.063836 1.3431-3.063836 3s1.371726 3 3.063836 3c1.12731 0 2.10974-.5979 2.64178-1.4858l6.20705 3.6466c-.0241.1517-.0403.3059-.0403.4642 0 1.6569 1.3717 3 3.0638 3s3.0638-1.3431 3.0638-3-1.3717-3-3.0638-3z"/><path d="m22.5609 2.25096c.2496 0 .4781.11501.6532.30482l.3693-.53415c-.2803-.25981-.6361-.41552-1.0225-.41552-.6541 0-1.2196.4456-1.4819 1.08798h-.4358v.64467h.2861c-.0041.05307-.0065.10674-.0065.16115 0 .05498.0025.10935.0066.16319h-.2842v.64463h.4347c.2626.64125.8275 1.08598 1.481 1.08598.3884 0 .7456-.15713 1.0265-.41953l-.3709-.53269c-.1757.19133-.4047.30751-.6556.30751-.3045 0-.5776-.17159-.7609-.44127h.9227v-.64463h-1.1517c-.0057-.0535-.0089-.10795-.0089-.16319 0-.05454.0032-.10821.0086-.16115h1.1511v-.64467h-.9232c.1834-.27085.457-.44313.7623-.44313z"/><path d="m22.1448 0c-1.2473 0-2.3779.661942-2.9991 1.7397l-.5305-.16943.3638 1.66378 1.2469-1.14936-.5027-.16059c.5283-.82756 1.4303-1.331503 2.4216-1.331503 1.5896 0 2.8829 1.304233 2.8829 2.907403s-1.2933 2.9074-2.8829 2.9074c-1.5084 0-2.7717-1.18718-2.8759-2.703l-.5862.04095c.1255 1.82497 1.6463 3.25465 3.4621 3.25465 1.9137 0 3.4704-1.57001 3.4704-3.5 0-1.9299-1.5567-3.5-3.4704-3.5z"/></g></svg>