<svg width="512" height="512" viewBox="0 0 512 512" fill="none" xmlns="http://www.w3.org/2000/svg">
<path d="M208.414 339.398L109.826 306.034C107.949 305.397 106 306.796 106 308.779V369.65C106 370.895 106.791 371.995 107.969 372.396L206.556 405.76C208.433 406.397 210.383 404.998 210.383 403.015V342.143C210.383 340.899 209.591 339.799 208.414 339.398ZM310.963 222.664L212.351 256.028C211.174 256.428 210.383 257.529 210.383 258.773V319.645C210.383 321.628 212.332 323.027 214.209 322.39L312.821 289.026C313.998 288.625 314.789 287.525 314.789 286.28V225.409C314.789 223.426 312.845 222.027 310.963 222.664ZM403.568 107.092L238.478 160.263C237.282 160.649 236.471 161.763 236.471 163.023V225.39C236.471 226.63 237.701 227.508 238.898 227.122L403.988 173.951C405.185 173.565 406 172.45 406 171.191V108.824C405.995 107.584 404.765 106.706 403.568 107.092Z" fill="white"/>
</svg>
