<svg width="1024" height="1024" viewBox="0 0 1024 1024" fill="none" xmlns="http://www.w3.org/2000/svg">
<rect width="1024" height="1024" fill="#0043EF"/>
<path d="M432.69 650.33L268.377 594.723C265.249 593.661 262 595.993 262 599.298V700.751C262 702.825 263.319 704.659 265.281 705.326L429.594 760.934C432.722 761.995 435.971 759.663 435.971 756.358V654.906C435.971 652.831 434.652 650.998 432.69 650.33ZM603.605 455.773L439.252 511.38C437.29 512.047 435.971 513.881 435.971 515.956V617.408C435.971 620.713 439.22 623.045 442.348 621.984L606.701 566.376C608.664 565.709 609.982 563.875 609.982 561.801V460.348C609.982 457.043 606.742 454.711 603.605 455.773ZM757.947 263.153L482.797 351.771C480.803 352.414 479.452 354.272 479.452 356.371V460.316C479.452 462.383 481.502 463.846 483.497 463.203L758.647 374.585C760.641 373.942 762 372.084 762 369.985V266.04C761.992 263.973 759.941 262.51 757.947 263.153Z" fill="white"/>
</svg>
