<svg fill="none" height="57" viewBox="0 0 57 57" width="57" xmlns="http://www.w3.org/2000/svg" xmlns:xlink="http://www.w3.org/1999/xlink"><linearGradient id="a"><stop offset="0" stop-color="#fff"/><stop offset="1" stop-color="#0ddb84"/></linearGradient><radialGradient id="b" cx="0" cy="0" gradientTransform="matrix(28.99999795 26.00002597 -10.25736929 11.44089966 27.5 23.5)" gradientUnits="userSpaceOnUse" r="1" xlink:href="#a"/><radialGradient id="c" cx="0" cy="0" gradientTransform="matrix(17.98042886 -2.48691791 .26789897 1.93691088 27.8805 41.2163)" gradientUnits="userSpaceOnUse" r="1" xlink:href="#a"/><radialGradient id="d" cx="0" cy="0" gradientTransform="matrix(23.48872878 1.30043473 -.05697221 1.0290441 27.6918 28.2499)" gradientUnits="userSpaceOnUse" r="1" xlink:href="#a"/><radialGradient id="e" cx="0" cy="0" gradientTransform="matrix(17.98042886 2.48691791 -.26789897 1.93691088 27.8805 15.7854)" gradientUnits="userSpaceOnUse" r="1" xlink:href="#a"/><g stroke="#077748" stroke-width=".4"><path d="m.2 28.5014c0-15.6199 12.6815-28.3014 28.3014-28.3014 15.6171 0 28.2986 12.6815 28.2986 28.3014 0 15.6171-12.6815 28.2986-28.2986 28.2986-15.6199 0-28.3014-12.6815-28.3014-28.2986zm54.1491 0c0-14.2678-11.5827-25.85045-25.8477-25.85045-14.2678 0-25.85045 11.58265-25.85045 25.85045 0 14.2677 11.58265 25.8504 25.85045 25.8504 14.265 0 25.8477-11.5827 25.8477-25.8504z" fill="url(#b)"/><path d="m44.3711 43.2036.0002.0001c.6448.2072 1.3335-.1466 1.5407-.7913.207-.6443-.1486-1.3334-.794-1.5408-11.0796-3.5529-22.1538-3.5394-33.2338.0001l-.0003.0001c-.6444.2048-1.0006.8961-.796 1.5381.2074.6451.8966 1.001 1.5411.7963 10.5795-3.3806 21.1622-3.3942 31.7421-.0026z" fill="url(#c)"/><path d="m50.1613 29.7254h-43.31921c-.67471 0-1.22412-.5494-1.22412-1.2241 0-.6777.54966-1.2268 1.22412-1.2268h43.31921c.6745 0 1.2241.5491 1.2241 1.2268 0 .6747-.5494 1.2241-1.2241 1.2241z" fill="url(#d)"/><path d="m11.8842 16.13-.0003-.0001c-.6444-.2047-1.0006-.8961-.796-1.5381.2074-.6451.8966-1.001 1.5411-.7963 10.5795 3.3806 21.1622 3.3942 31.7421.0026l.0002-.0001c.6448-.2071 1.3335.1466 1.5407.7913.207.6443-.1486 1.3334-.794 1.5408-11.0796 3.5529-22.1538 3.5394-33.2338-.0001z" fill="url(#e)"/></g></svg>