<svg xmlns="http://www.w3.org/2000/svg" width="38" height="38" fill="none"><path fill="url(#a)" d="M12.973 29.544.485 25.302a.367.367 0 0 0-.485.35v7.738c0 .158.1.298.25.349l12.487 4.241a.367.367 0 0 0 .485-.349v-7.738a.37.37 0 0 0-.25-.35m12.989-14.84-12.49 4.241a.368.368 0 0 0-.25.35v7.738c0 .252.247.43.485.349l12.49-4.242c.15-.05.25-.19.25-.349v-7.738a.367.367 0 0 0-.485-.35M37.692.012l-20.911 6.76a.368.368 0 0 0-.255.35v7.928c0 .158.156.27.308.22l20.911-6.759a.369.369 0 0 0 .255-.35V.23a.235.235 0 0 0-.308-.22"/><defs><linearGradient id="a" x1="1.77" x2="38.73" y1="31.574" y2="5.819" gradientUnits="userSpaceOnUse"><stop offset=".021" stop-color="#B15EB3"/><stop offset=".036" stop-color="#B156B3"/><stop offset=".088" stop-color="#B13FB3"/><stop offset=".144" stop-color="#B12FB3"/><stop offset=".207" stop-color="#B126B3"/><stop offset=".292" stop-color="#B123B3"/><stop offset=".424" stop-color="#6E5CCA"/><stop offset=".554" stop-color="#348FDF"/><stop offset=".649" stop-color="#10AEEB"/><stop offset=".699" stop-color="#02BAF0"/><stop offset=".897" stop-color="#02E6D5"/></linearGradient></defs></svg>